<?xml version="1.0" encoding="UTF-8"?>
<svg width="38px" height="38px" viewBox="0 0 38 38" version="1.1" xmlns="http://www.w3.org/2000/svg" xmlns:xlink="http://www.w3.org/1999/xlink">
    <!-- Generator: Sketch 53.1 (72631) - https://sketchapp.com -->
    <title>Path</title>
    <desc>Created with Sketch.</desc>
    <g id="Page-1" stroke="none" stroke-width="1" fill="none" fill-rule="evenodd">
        <g id="close" fill="#141414" fill-rule="nonzero">
            <path d="M23.6,18.8 L36.7,5.7 C37.3,5.1 37.3,4.2 36.7,3.6 L34.6,1.5 C34,0.9 33.1,0.9 32.5,1.5 L19.4,14.6 C19,15 18.4,15 18,14.6 L4.9,1.4 C4.3,0.8 3.4,0.8 2.8,1.4 L0.7,3.5 C0.1,4.1 0.1,5 0.7,5.6 L13.8,18.7 C14.2,19.1 14.2,19.7 13.8,20.1 L0.6,33.3 C1.77635684e-15,33.9 1.77635684e-15,34.8 0.6,35.4 L2.7,37.5 C3.3,38.1 4.2,38.1 4.8,37.5 L18,24.4 C18.4,24 19,24 19.4,24.4 L32.5,37.5 C33.1,38.1 34,38.1 34.6,37.5 L36.7,35.4 C37.3,34.8 37.3,33.9 36.7,33.3 L23.6,20.2 C23.3,19.8 23.3,19.2 23.6,18.8 Z" id="Path"></path>
        </g>
    </g>
</svg>