<?xml version="1.0" encoding="UTF-8"?>
<svg width="28px" height="28px" viewBox="0 0 28 28" version="1.1" xmlns="http://www.w3.org/2000/svg" xmlns:xlink="http://www.w3.org/1999/xlink">
    <!-- Generator: Sketch 53 (72520) - https://sketchapp.com -->
    <title>Group 3</title>
    <desc>Created with Sketch.</desc>
    <g id="Page-1" stroke="none" stroke-width="1" fill="none" fill-rule="evenodd">
        <g id="Home" transform="translate(-38.000000, -165.000000)" fill="#707880" stroke="#707880">
            <g id="Group-4">
                <g id="Group-16" transform="translate(39.000000, 166.000000)">
                    <g id="Group-3">
                        <path d="M22.885895,23.9232797 C22.885895,24.4970283 22.4197092,24.9626793 21.8453018,24.9626793 L16.7583923,24.9626793 L16.7583923,14.5666052 L9.49088981,14.5666052 L9.49088981,24.9626793 L4.15521847,24.9626793 C3.58081106,24.9626793 3.11462534,24.4970283 3.11462534,23.9232797 L3.11462534,9.40598654 L13.0002601,1.16926498 L22.885895,9.40598654 L22.885895,23.9232797 Z M10.5294018,24.9606005 L15.7204006,24.9606005 L15.7204006,15.6060047 L10.5294018,15.6060047 L10.5294018,24.9606005 Z M13.5096305,0.311240674 C13.4862171,0.247837303 13.4503167,0.18807183 13.3993276,0.136621553 C13.2900653,0.0280043027 13.1428214,-0.0120125791 13.0002601,0.00305871405 C12.8576989,-0.0120125791 12.7099347,0.0280043027 12.6006724,0.136621553 C12.5496833,0.18807183 12.5137829,0.248357003 12.4903695,0.311240674 L0.14477252,10.5997369 C-0.0482575068,10.7925455 -0.0482575068,11.1054048 0.14477252,11.2982134 C0.337802547,11.491022 0.651541379,11.491022 0.844571406,11.2982134 L2.07091042,10.2759639 L2.07091042,24.3759382 C2.07091042,25.2734597 2.8024474,26 3.70516194,26 L12.4908898,26 L19.7583923,26 L22.2766277,26 C23.1793422,26 23.9113995,25.2734597 23.9113995,24.3759382 L23.9113995,10.2608927 L25.1559489,11.2982134 C25.3489789,11.491022 25.6621975,11.491022 25.8552275,11.2982134 C26.0482575,11.1054048 26.0482575,10.7925455 25.8552275,10.5997369 L13.5096305,0.311240674 Z M14.5512642,7.81050827 C14.5512642,8.67113107 13.8566683,9.36960756 13.0002601,9.36960756 C12.1433317,9.36960756 11.4487358,8.67113107 11.4487358,7.81050827 C11.4487358,6.94988546 12.1433317,6.25140897 13.0002601,6.25140897 C13.8566683,6.25140897 14.5512642,6.94988546 14.5512642,7.81050827 L14.5512642,7.81050827 Z M10.4091832,7.81050827 C10.4091832,9.24591901 11.5694446,10.4090071 13.0002601,10.4090071 C14.4310757,10.4090071 15.5908168,9.24591901 15.5908168,7.81050827 C15.5908168,6.37509752 14.4310757,5.21304885 13.0002601,5.21304885 C11.5694446,5.21304885 10.4091832,6.37509752 10.4091832,7.81050827 L10.4091832,7.81050827 Z" id="Fill-1"></path>
                    </g>
                </g>
            </g>
        </g>
    </g>
</svg>
