<?xml version="1.0" encoding="UTF-8"?>
<svg width="268px" height="221px" viewBox="0 0 268 221" version="1.1" xmlns="http://www.w3.org/2000/svg" xmlns:xlink="http://www.w3.org/1999/xlink">
    <!-- Generator: Sketch 53 (72520) - https://sketchapp.com -->
    <title>Group 6 Copy</title>
    <desc>Created with Sketch.</desc>
    <g id="Page-1" stroke="none" stroke-width="1" fill="none" fill-rule="evenodd">
        <g id="Loan-Records-Copy" transform="translate(-1311.000000, -670.000000)" fill="#FFF9EF">
            <g id="Group-9" transform="translate(338.000000, 670.000000)">
                <g id="Group-6-Copy" transform="translate(1123.500000, 103.500000) rotate(180.000000) translate(-1123.500000, -103.500000) translate(968.000000, -15.000000)">
                    <path d="M107.342098,170.866306 L131.086817,183.969338 C133.318845,185.201036 134.704782,187.54879 134.704782,190.098109 L134.704782,215.765238 C134.704782,218.314557 133.318845,220.66231 131.086817,221.894009 L107.342098,234.99704 C105.23703,236.158679 102.683096,236.158679 100.578027,234.99704 L76.8333086,221.894009 C74.6012806,220.66231 73.2153441,218.314557 73.2153441,215.765238 L73.2153441,190.098109 C73.2153441,187.54879 74.6012806,185.201036 76.8333086,183.969338 L100.578027,170.866306 C102.683096,169.704668 105.23703,169.704668 107.342098,170.866306 Z" id="Polygon"></path>
                    <path d="M174.82323,170.866306 L198.567949,183.969338 C200.799977,185.201036 202.185914,187.54879 202.185914,190.098109 L202.185914,215.765238 C202.185914,218.314557 200.799977,220.66231 198.567949,221.894009 L174.82323,234.99704 C172.718162,236.158679 170.164228,236.158679 168.059159,234.99704 L144.314441,221.894009 C142.082413,220.66231 140.696476,218.314557 140.696476,215.765238 L140.696476,190.098109 C140.696476,187.54879 142.082413,185.201036 144.314441,183.969338 L168.059159,170.866306 C170.164228,169.704668 172.718162,169.704668 174.82323,170.866306 Z" id="Polygon-Copy"></path>
                    <path d="M107.342098,57.8663063 L131.086817,70.9693378 C133.318845,72.2010362 134.704782,74.5487895 134.704782,77.098109 L134.704782,102.765238 C134.704782,105.314557 133.318845,107.66231 131.086817,108.894009 L107.342098,121.99704 C105.23703,123.158679 102.683096,123.158679 100.578027,121.99704 L76.8333086,108.894009 C74.6012806,107.66231 73.2153441,105.314557 73.2153441,102.765238 L73.2153441,77.098109 C73.2153441,74.5487895 74.6012806,72.2010362 76.8333086,70.9693378 L100.578027,57.8663063 C102.683096,56.7046678 105.23703,56.7046678 107.342098,57.8663063 Z" id="Polygon"></path>
                    <path d="M38.8829789,170.866306 L62.6276977,183.969338 C64.8597257,185.201036 66.2456622,187.54879 66.2456622,190.098109 L66.2456622,215.765238 C66.2456622,218.314557 64.8597257,220.66231 62.6276977,221.894009 L38.8829789,234.99704 C36.7779104,236.158679 34.2239764,236.158679 32.1189079,234.99704 L8.37418907,221.894009 C6.14216114,220.66231 4.75622456,218.314557 4.75622456,215.765238 L4.75622456,190.098109 C4.75622456,187.54879 6.14216114,185.201036 8.37418907,183.969338 L32.1189079,170.866306 C34.2239764,169.704668 36.7779104,169.704668 38.8829789,170.866306 Z" id="Polygon"></path>
                    <path d="M38.8829789,57.8663063 L62.6276977,70.9693378 C64.8597257,72.2010362 66.2456622,74.5487895 66.2456622,77.098109 L66.2456622,102.765238 C66.2456622,105.314557 64.8597257,107.66231 62.6276977,108.894009 L38.8829789,121.99704 C36.7779104,123.158679 34.2239764,123.158679 32.1189079,121.99704 L8.37418907,108.894009 C6.14216114,107.66231 4.75622456,105.314557 4.75622456,102.765238 L4.75622456,77.098109 C4.75622456,74.5487895 6.14216114,72.2010362 8.37418907,70.9693378 L32.1189079,57.8663063 C34.2239764,56.7046678 36.7779104,56.7046678 38.8829789,57.8663063 Z" id="Polygon"></path>
                    <path d="M74.0905261,114.866306 L97.8352449,127.969338 C100.067273,129.201036 101.453209,131.54879 101.453209,134.098109 L101.453209,159.765238 C101.453209,162.314557 100.067273,164.66231 97.8352449,165.894009 L74.0905261,178.99704 C71.9854576,180.158679 69.4315235,180.158679 67.3264551,178.99704 L43.5817362,165.894009 C41.3497083,164.66231 39.9637717,162.314557 39.9637717,159.765238 L39.9637717,134.098109 C39.9637717,131.54879 41.3497083,129.201036 43.5817362,127.969338 L67.3264551,114.866306 C69.4315235,113.704668 71.9854576,113.704668 74.0905261,114.866306 Z" id="Polygon"></path>
                    <path d="M141.571658,114.866306 L165.316377,127.969338 C167.548405,129.201036 168.934341,131.54879 168.934341,134.098109 L168.934341,159.765238 C168.934341,162.314557 167.548405,164.66231 165.316377,165.894009 L141.571658,178.99704 C139.46659,180.158679 136.912656,180.158679 134.807587,178.99704 L111.062868,165.894009 C108.83084,164.66231 107.444904,162.314557 107.444904,159.765238 L107.444904,134.098109 C107.444904,131.54879 108.83084,129.201036 111.062868,127.969338 L134.807587,114.866306 C136.912656,113.704668 139.46659,113.704668 141.571658,114.866306 Z" id="Polygon-Copy"></path>
                    <path d="M210.030778,1.86630627 L233.775496,14.9693378 C236.007524,16.2010362 237.393461,18.5487895 237.393461,21.098109 L237.393461,46.7652375 C237.393461,49.314557 236.007524,51.6623103 233.775496,52.8940087 L210.030778,65.9970402 C207.925709,67.1586786 205.371775,67.1586786 203.266707,65.9970402 L179.521988,52.8940087 C177.28996,51.6623103 175.904023,49.314557 175.904023,46.7652375 L175.904023,21.098109 C175.904023,18.5487895 177.28996,16.2010362 179.521988,14.9693378 L203.266707,1.86630627 C205.371775,0.704667819 207.925709,0.704667819 210.030778,1.86630627 Z" id="Polygon-Copy-3"></path>
                    <path d="M174.82323,57.8663063 L198.567949,70.9693378 C200.799977,72.2010362 202.185914,74.5487895 202.185914,77.098109 L202.185914,102.765238 C202.185914,105.314557 200.799977,107.66231 198.567949,108.894009 L174.82323,121.99704 C172.718162,123.158679 170.164228,123.158679 168.059159,121.99704 L144.314441,108.894009 C142.082413,107.66231 140.696476,105.314557 140.696476,102.765238 L140.696476,77.098109 C140.696476,74.5487895 142.082413,72.2010362 144.314441,70.9693378 L168.059159,57.8663063 C170.164228,56.7046678 172.718162,56.7046678 174.82323,57.8663063 Z" id="Polygon-Copy-2"></path>
                    <path d="M278.489897,1.86630627 L302.234616,14.9693378 C304.466644,16.2010362 305.85258,18.5487895 305.85258,21.098109 L305.85258,46.7652375 C305.85258,49.314557 304.466644,51.6623103 302.234616,52.8940087 L278.489897,65.9970402 C276.384829,67.1586786 273.830895,67.1586786 271.725826,65.9970402 L247.981107,52.8940087 C245.749079,51.6623103 244.363143,49.314557 244.363143,46.7652375 L244.363143,21.098109 C244.363143,18.5487895 245.749079,16.2010362 247.981107,14.9693378 L271.725826,1.86630627 C273.830895,0.704667819 276.384829,0.704667819 278.489897,1.86630627 Z" id="Polygon-Copy-4"></path>
                </g>
            </g>
        </g>
    </g>
</svg>