<?xml version="1.0" encoding="UTF-8"?>
<svg width="26px" height="26px" viewBox="0 0 26 26" version="1.1" xmlns="http://www.w3.org/2000/svg" xmlns:xlink="http://www.w3.org/1999/xlink">
    <!-- Generator: Sketch 53 (72520) - https://sketchapp.com -->
    <title>Fill 1</title>
    <desc>Created with Sketch.</desc>
    <g id="Page-1" stroke="none" stroke-width="1" fill="none" fill-rule="evenodd">
        <g id="Home" transform="translate(-39.000000, -315.000000)" fill="#16181E" stroke="#16181E">
            <g id="Group-4">
                <g id="Group-11" transform="translate(40.000000, 316.000000)">
                    <path d="M18.2,6.38977196 L5.72,6.38977196 C5.43244,6.38977196 5.2,6.62273196 5.2,6.90977196 C5.2,7.19733196 5.43244,7.42977196 5.72,7.42977196 L18.2,7.42977196 C18.48704,7.42977196 18.72,7.19733196 18.72,6.90977196 C18.72,6.62273196 18.48704,6.38977196 18.2,6.38977196 L18.2,6.38977196 Z M22.88,21.81298 C22.88,22.525942 22.27368,23.1074803 21.528,23.1074803 L2.392,23.1074803 C1.64632,23.1074803 1.04,22.525942 1.04,21.81298 L1.04,2.25634917 C1.04,1.54290571 1.64632,0.962811678 2.392,0.962811678 L21.528,0.962811678 C22.27368,0.962811678 22.88,1.54290571 22.88,2.25634917 L22.88,21.81298 Z M21.528,2.27373675e-13 L2.392,2.27373675e-13 C1.07068,2.27373675e-13 -8.73967565e-13,1.00998945 -8.73967565e-13,2.25634917 L-8.73967565e-13,21.81298 C-8.73967565e-13,23.0593397 1.07068,24.070292 2.392,24.070292 L21.528,24.070292 C22.84828,24.070292 23.92,23.0593397 23.92,21.81298 L23.92,2.25634917 C23.92,1.00998945 22.84828,2.27373675e-13 21.528,2.27373675e-13 L21.528,2.27373675e-13 Z M18.2,16.790292 L5.72,16.790292 C5.43244,16.790292 5.2,17.022732 5.2,17.310292 C5.2,17.596812 5.43244,17.830292 5.72,17.830292 L18.2,17.830292 C18.48704,17.830292 18.72,17.596812 18.72,17.310292 C18.72,17.022732 18.48704,16.790292 18.2,16.790292 L18.2,16.790292 Z M18.2,11.589772 L5.72,11.589772 C5.43244,11.589772 5.2,11.822732 5.2,12.110292 C5.2,12.396812 5.43244,12.630292 5.72,12.630292 L18.2,12.630292 C18.48704,12.630292 18.72,12.396812 18.72,12.110292 C18.72,11.822732 18.48704,11.589772 18.2,11.589772 L18.2,11.589772 Z" id="Fill-1"></path>
                </g>
            </g>
        </g>
    </g>
</svg>
