<?xml version="1.0" encoding="UTF-8"?>
<svg width="28px" height="27px" viewBox="0 0 28 27" version="1.1" xmlns="http://www.w3.org/2000/svg" xmlns:xlink="http://www.w3.org/1999/xlink">
    <!-- Generator: Sketch 53 (72520) - https://sketchapp.com -->
    <title>Fill 1</title>
    <desc>Created with Sketch.</desc>
    <g id="Page-1" stroke="none" stroke-width="1" fill="none" fill-rule="evenodd">
        <g id="Home" transform="translate(-38.000000, -241.000000)" fill="#16181E" stroke="#16181E">
            <g id="Group-4">
                <g id="Group-12" transform="translate(39.000000, 232.000000)">
                    <path d="M24.8596666,27.52868 C24.3365466,27.06172 20.5556266,26.11792 19.0008266,25.74404 C19.0814266,25.69308 19.1578666,25.63588 19.2363866,25.58076 C19.0840266,25.57816 18.9077466,25.57452 18.7179466,25.57088 L18.7179466,25.58856 L18.7179466,26.73672 C21.0808266,27.29988 23.6615866,28.01436 24.1784666,28.31648 C24.8003866,28.90824 25.2241866,30.47396 24.7182266,31.5046 C24.3573466,31.56752 23.5456266,31.66684 21.8239066,31.7412 C21.7994666,32.10052 21.7271866,32.45308 21.5966666,32.78172 C25.1108266,32.64184 25.4030666,32.38496 25.4030666,32.38496 C26.4914266,30.92792 25.9469866,28.50004 24.8596666,27.52868 M18.4782266,33.58408 C17.8448666,33.69432 15.8319466,33.91896 9.92058664,33.91896 C3.96398664,33.91896 1.92298664,33.69276 1.27714664,33.57992 C0.770666645,32.55032 1.20174664,30.9846 1.82886664,30.397 C2.37746664,30.06888 5.29310664,29.2842 7.79586664,28.71376 L8.31794664,27.66856 L8.31794664,27.37632 C7.57382664,27.10488 6.89314664,26.63636 6.30814664,25.97804 L6.23794664,25.58856 C6.23794664,25.58856 4.95042664,25.55008 4.15794664,25.58856 C4.34150664,24.69312 4.32070664,23.74776 4.31186664,22.90276 C4.31186664,22.90276 4.27182664,21.76448 4.27182664,20.57888 C4.27182664,16.02264 5.89526664,13.12468 9.87638664,13.12468 C13.8569866,13.12468 15.4804266,16.00392 15.4804266,20.51284 C15.4804266,20.60124 15.4450666,22.90276 15.4450666,22.90276 C15.4357066,23.72592 15.4279066,24.70924 15.5979466,25.58856 C14.8169066,25.52252 13.5179466,25.58856 13.5179466,25.58856 L13.4451466,25.87716 C12.9781866,26.40444 12.3037466,26.99204 11.4379466,27.342 L11.4379466,27.66856 L11.9527466,28.69764 L11.9725066,28.69764 C14.4591466,29.27432 17.3846666,30.07252 17.9384666,30.397 C18.5603866,30.98824 18.9841866,32.55396 18.4782266,33.58408 M12.7613466,27.82404 C13.2891466,27.48552 13.7711866,27.06328 14.1991466,26.58072 C15.5828666,26.58332 17.2187866,26.627 17.6779466,26.62856 C16.3639066,26.61452 16.5001466,21.8586 16.5001466,21.8586 L16.4294266,21.8586 C16.4699866,20.81444 16.4991066,20.87268 16.4991066,20.51284 C16.4991066,16.50208 15.2942666,12.08 9.87638664,12.08 C4.45746664,12.08 3.25314664,16.56812 3.25314664,20.57888 C3.25314664,20.9382 3.28174664,20.81444 3.32282664,21.8586 L3.25626664,21.8586 C3.25626664,21.8586 3.39354664,26.6166 2.07794664,26.62856 C2.53658664,26.62804 4.31030664,26.68264 5.78658664,26.68056 C6.21194664,27.12932 6.63470664,27.511 7.08034664,27.82092 C5.51722664,28.18908 1.69470664,29.12404 1.14766664,29.60868 C0.0520266445,30.58004 -0.499693355,33.00792 0.595946645,34.46444 C0.595946645,34.46444 1.22150664,34.9496 9.92058664,34.9496 C18.6196666,34.9496 19.1630666,34.46444 19.1630666,34.46444 C20.2514266,33.00792 19.7069866,30.58004 18.6196666,29.60868 C18.0965466,29.14172 14.3161466,28.19792 12.7613466,27.82404 M16.1163866,11.04468 C20.0969866,11.04468 21.7204266,13.9234 21.7204266,18.43336 C21.7204266,18.52124 21.6850666,20.82276 21.6850666,20.82276 C21.6757066,21.64592 21.6679066,22.62924 21.8379466,23.50856 C21.0569066,23.44252 19.7579466,23.50856 19.7579466,23.50856 L19.6851466,23.7982 C19.4745466,24.03584 19.2098666,24.28284 18.9160666,24.5184 C19.0367066,24.94012 19.2015466,25.27344 19.4204666,25.4492 C19.7860266,25.17048 20.1271466,24.85224 20.4391466,24.5002 C21.8228666,24.50332 23.4587866,24.54648 23.9179466,24.54856 C22.6039066,24.53348 22.7401466,19.7786 22.7401466,19.7786 L22.6694266,19.7786 C22.7099866,18.73392 22.7391066,18.79216 22.7391066,18.43336 C22.7391066,14.42312 21.5342666,10 16.1163866,10 C14.5106266,10 13.2818666,10.40092 12.3380666,11.05976 C13.0005466,11.08732 13.5969866,11.18248 14.1315466,11.339 C14.7144666,11.14556 15.3743466,11.04468 16.1163866,11.04468" id="Fill-1"></path>
                </g>
            </g>
        </g>
    </g>
</svg>
