<?xml version="1.0" encoding="UTF-8"?>
<svg width="21px" height="25px" viewBox="0 0 21 25" version="1.1" xmlns="http://www.w3.org/2000/svg" xmlns:xlink="http://www.w3.org/1999/xlink">
    <!-- Generator: Sketch 53.1 (72631) - https://sketchapp.com -->
    <title>Polygon</title>
    <desc>Created with Sketch.</desc>
    <g id="Page-1" stroke="none" stroke-width="1" fill="none" fill-rule="evenodd">
        <g id="Home-v1.0" transform="translate(-341.000000, -1288.000000)" fill="#FFFFFF">
            <g id="Group-2" transform="translate(338.000000, 1067.000000)">
                <g id="Group-9" transform="translate(0.000000, 105.000000)">
                    <g id="Group-7" transform="translate(0.974902, 116.000000)">
                        <path d="M14.0485977,1.3660254 L21.4409026,5.6339746 C22.3691058,6.16987298 22.9409026,7.16025404 22.9409026,8.23205081 L22.9409026,16.7679492 C22.9409026,17.839746 22.3691058,18.830127 21.4409026,19.3660254 L14.0485977,23.6339746 C13.1203945,24.169873 11.976801,24.169873 11.0485977,23.6339746 L3.65629288,19.3660254 C2.72808965,18.830127 2.15629288,17.839746 2.15629288,16.7679492 L2.15629288,8.23205081 C2.15629288,7.16025404 2.72808965,6.16987298 3.65629288,5.6339746 L11.0485977,1.3660254 C11.976801,0.830127019 13.1203945,0.830127019 14.0485977,1.3660254 Z" id="Polygon"></path>
                    </g>
                </g>
            </g>
        </g>
    </g>
</svg>