<?xml version="1.0" encoding="UTF-8"?>
<svg width="20px" height="20px" viewBox="0 0 20 20" version="1.1" xmlns="http://www.w3.org/2000/svg" xmlns:xlink="http://www.w3.org/1999/xlink">
    <!-- Generator: Sketch 53.1 (72631) - https://sketchapp.com -->
    <title>Shape</title>
    <desc>Created with Sketch.</desc>
    <g id="Page-1" stroke="none" stroke-width="1" fill="none" fill-rule="evenodd">
        <g id="Manage-employees" transform="translate(-700.000000, -190.000000)" fill="#FFFFFF" fill-rule="nonzero">
            <g id="search" transform="translate(700.000000, 190.000000)">
                <path d="M13.3564702,2.28849089 C10.3058157,-0.762163629 5.33916226,-0.762163629 2.28744033,2.28849089 C-0.762146777,5.34128022 -0.762146777,10.3057988 2.28744033,13.3575207 C5.00506328,16.0751437 9.236272,16.3654789 12.2869265,14.2434701 C12.350971,14.5476816 12.4972061,14.8380168 12.7331034,15.0739142 L17.1767265,19.5175373 C17.4866797,19.8280001 17.9073724,20.0024591 18.3460729,20.0024591 C18.7847734,20.0024591 19.2054661,19.8280001 19.5154193,19.5175373 C19.8258174,19.2077664 20.00025,18.7872504 20.00025,18.3487246 C20.00025,17.9101987 19.8258174,17.4896827 19.5154193,17.1799119 L15.0717962,12.734154 C14.844726,12.5083542 14.5569714,12.3533524 14.2434869,12.2879771 C16.3654958,9.23838996 16.0740931,5.00824866 13.3575376,2.28849089 L13.3564702,2.28849089 Z M11.9549624,11.9549455 C9.67171904,14.2329594 5.97539371,14.2329594 3.69215039,11.9549455 C1.4160196,9.67134034 1.4160196,5.97680611 3.69215039,3.69320094 C5.97551319,1.41648375 9.67053215,1.41648375 11.9538949,3.69320094 C14.2311989,5.97632116 14.2311989,9.67182529 11.9538949,11.9549455 L11.9549624,11.9549455 Z" id="Shape"></path>
            </g>
        </g>
    </g>
</svg>