<?xml version="1.0" encoding="UTF-8"?>
<svg width="27px" height="27px" viewBox="0 0 27 27" version="1.1" xmlns="http://www.w3.org/2000/svg" xmlns:xlink="http://www.w3.org/1999/xlink">
    <!-- Generator: Sketch 53 (72520) - https://sketchapp.com -->
    <title>Fill 1</title>
    <desc>Created with Sketch.</desc>
    <g id="Page-1" stroke="none" stroke-width="1" fill="none" fill-rule="evenodd">
        <g id="Home" transform="translate(-38.000000, -379.000000)" fill="#16181E" stroke="#16181E">
            <g id="Group-4">
                <g id="Group" transform="translate(39.000000, 380.000000)">
                    <path d="M15.2941176,24.1891765 L15.2941176,18.8627451 C16.9030588,18.1913333 18.1877647,16.9040784 18.8596863,15.2961569 L24.1810196,15.2961569 C23.1965882,19.7217647 19.7212549,23.2067843 15.2941176,24.1891765 L15.2941176,24.1891765 Z M14.2745098,24.3681176 C13.7733725,24.4333725 13.2635686,24.4705882 12.745098,24.4705882 C12.2261176,24.4705882 11.7163137,24.4333725 11.2156863,24.3681176 L11.2156863,19.188 C11.7071373,19.3042353 12.217451,19.372549 12.745098,19.372549 C13.2722353,19.372549 13.782549,19.3042353 14.2745098,19.1874902 L14.2745098,24.3681176 Z M10.1960784,24.1891765 C5.76894118,23.2072941 2.29309804,19.7217647 1.30866667,15.2961569 L6.63,15.2961569 C7.30243137,16.9040784 8.58713725,18.1913333 10.1960784,18.8627451 L10.1960784,24.1891765 Z M1.01960784,12.745098 C1.01960784,12.2261176 1.06396078,11.7183529 1.12921569,11.2177255 L6.29556863,11.2177255 C6.17984314,11.7081569 6.11764706,12.2194902 6.11764706,12.745098 C6.11764706,13.2722353 6.17984314,13.7845882 6.29658824,14.276549 L1.12972549,14.276549 C1.06396078,13.7738824 1.01960784,13.265098 1.01960784,12.745098 L1.01960784,12.745098 Z M10.1960784,1.30101961 L10.1960784,6.62745098 C8.58560784,7.29886275 7.29988235,8.58815686 6.62847059,10.1981176 L1.30815686,10.1981176 C2.29054902,5.76996078 5.76741176,2.28239216 10.1960784,1.30101961 L10.1960784,1.30101961 Z M11.2156863,1.12207843 C11.7163137,1.05682353 12.2261176,1.01960784 12.745098,1.01960784 C13.2635686,1.01960784 13.7733725,1.05682353 14.2745098,1.12207843 L14.2745098,6.30219608 C13.782549,6.18596078 13.2722353,6.11764706 12.745098,6.11764706 C12.217451,6.11764706 11.7071373,6.18596078 11.2156863,6.30168627 L11.2156863,1.12207843 Z M15.2941176,1.30101961 C19.7222745,2.28239216 23.1991373,5.76996078 24.1815294,10.1981176 L18.8612157,10.1981176 C18.1898039,8.58815686 16.9040784,7.29886275 15.2941176,6.62745098 L15.2941176,1.30101961 Z M12.745098,18.3529412 C9.64752941,18.3529412 7.1372549,15.8416471 7.1372549,12.745098 C7.1372549,9.64854902 9.64752941,7.1372549 12.745098,7.1372549 C15.8421569,7.1372549 18.3529412,9.64854902 18.3529412,12.745098 C18.3529412,15.8416471 15.8421569,18.3529412 12.745098,18.3529412 L12.745098,18.3529412 Z M24.4705882,12.745098 C24.4705882,13.265098 24.4257255,13.7738824 24.3599608,14.276549 L19.193098,14.276549 C19.3098431,13.7845882 19.372549,13.2722353 19.372549,12.745098 C19.372549,12.2194902 19.3103529,11.7081569 19.1941176,11.2177255 L24.3604706,11.2177255 C24.4257255,11.7183529 24.4705882,12.2261176 24.4705882,12.745098 L24.4705882,12.745098 Z M12.745098,2.32702746e-13 C5.70623529,2.32702746e-13 -6.76791956e-13,5.7072549 -6.76791956e-13,12.745098 C-6.76791956e-13,19.783451 5.70623529,25.4901961 12.745098,25.4901961 C19.7839608,25.4901961 25.4901961,19.783451 25.4901961,12.745098 C25.4901961,5.7072549 19.7839608,2.32702746e-13 12.745098,2.32702746e-13 L12.745098,2.32702746e-13 Z" id="Fill-1"></path>
                </g>
            </g>
        </g>
    </g>
</svg>
